<mxfile host="app.diagrams.net" modified="2023-10-03T00:47:33.089Z" agent="Mozilla/5.0 (X11; Linux x86_64; rv:109.0) Gecko/20100101 Firefox/116.0" version="21.7.2" etag="5OIatpYVbmashSgsk_mL" type="github">
  <diagram name="Page-1" id="8EZCgOndj4lQ6mT1VXiS">
    <mxGraphModel>
      <root>
        <mxCell id="0" />
        <mxCell id="1" parent="0" />
      </root>
    </mxGraphModel>
  </diagram>
</mxfile>
